<?xml version="1.0" ?><svg height="512" preserveAspectRatio="xMidYMid" viewBox="0 0 512 512" width="512" xmlns="http://www.w3.org/2000/svg" xmlns:xlink="http://www.w3.org/1999/xlink"><defs><style>
      .cls-1 {
        fill: #3498db;
      }

      .cls-2 {
        fill: #000;
        opacity: 0.3;
      }

      .cls-2, .cls-3 {
        fill-rule: evenodd;
      }

      .cls-3 {
        fill: #fff;
      }
    </style></defs><g><circle class="cls-1" cx="256" cy="256" r="256"/><path class="cls-2" d="M374.130,328.095 L259.394,511.978 C258.264,511.993 257.133,512.000 256.000,512.000 C120.408,512.000 9.437,406.584 0.571,273.237 L146.086,174.895 L326.000,207.000 L374.130,328.095 Z"/><path class="cls-3" d="M349.190,342.837 C319.820,347.035 175.974,347.262 157.734,342.114 C139.494,336.966 128.000,326.976 128.000,256.811 C128.000,186.646 135.969,175.161 161.360,170.061 C186.751,164.962 337.014,164.055 354.266,170.784 C373.326,178.219 384.000,185.825 384.000,248.859 C384.000,311.892 381.358,338.240 349.190,342.837 ZM229.530,289.342 L288.997,258.257 L229.530,219.942 L229.530,289.342 ZM229.530,217.774 L290.448,257.534 L297.700,253.919 L229.530,217.774 Z"/></g></svg>